<?xml version="1.0" standalone="no"?>
<!DOCTYPE svg PUBLIC "-//W3C//DTD SVG 20010904//EN"
 "http://www.w3.org/TR/2001/REC-SVG-20010904/DTD/svg10.dtd">
<svg version="1.0" xmlns="http://www.w3.org/2000/svg"
 width="305.000000pt" height="305.000000pt" viewBox="0 0 305.000000 305.000000"
 preserveAspectRatio="xMidYMid meet">
<metadata>
Created by potrace 1.14, written by Peter Selinger 2001-2017
</metadata>
<g transform="translate(0.000000,305.000000) scale(0.100000,-0.100000)"
fill="#000000" stroke="none">
<path d="M2326 2132 c-3 -5 11 -41 30 -81 32 -66 54 -96 139 -185 31 -32 60
-96 44 -96 -4 0 -6 -6 -3 -13 4 -10 -4 -13 -28 -12 -17 1 -34 7 -36 13 -2 6
-10 8 -18 5 -7 -3 -17 2 -20 11 -4 11 -13 14 -25 11 -11 -4 -19 -2 -19 5 0 6
-4 8 -10 5 -5 -3 -10 -1 -10 6 0 7 -3 9 -7 6 -3 -4 -11 -3 -17 2 -7 6 -24 12
-40 15 -15 3 -39 12 -52 21 -18 12 -24 12 -24 2 0 -14 35 -47 50 -47 6 0 10
-5 10 -12 0 -6 3 -9 6 -5 4 3 26 -5 51 -18 24 -14 50 -25 58 -25 8 0 15 -5 15
-11 0 -5 5 -7 10 -4 6 3 10 1 10 -4 0 -6 3 -11 8 -10 4 1 18 -2 32 -7 14 -4
25 -6 25 -4 0 2 9 -4 21 -14 20 -17 20 -20 7 -58 -8 -23 -12 -47 -9 -54 3 -7
1 -14 -4 -16 -5 -2 -11 -14 -14 -28 -2 -14 -5 -27 -6 -30 -2 -3 -2 -8 -1 -13
1 -4 -12 -36 -29 -72 -30 -63 -125 -175 -149 -175 -7 0 -10 -4 -7 -9 3 -5 -15
-16 -39 -26 -25 -9 -45 -21 -45 -26 0 -5 -8 -9 -19 -9 -10 0 -24 -7 -31 -15
-7 -8 -23 -13 -36 -11 -13 3 -26 0 -29 -5 -4 -5 -16 -9 -28 -9 -12 0 -34 -7
-49 -14 -16 -9 -28 -10 -28 -5 0 6 -5 7 -11 3 -18 -11 -203 -8 -226 4 -11 6
-23 9 -26 5 -4 -3 -9 2 -13 11 -7 20 34 107 68 147 38 42 94 139 81 139 -4 0
-2 5 5 12 7 7 12 20 12 30 0 10 4 18 8 18 11 0 12 6 16 107 2 61 -1 83 -10 87
-8 3 -13 2 -12 -2 1 -4 -1 -14 -4 -22 -4 -8 -12 -37 -19 -65 -6 -27 -16 -55
-20 -61 -5 -6 -6 -13 -4 -16 7 -7 -51 -120 -69 -133 -7 -5 -14 -14 -16 -20 -1
-5 -25 -41 -54 -79 -28 -38 -51 -72 -51 -75 -1 -16 -39 -61 -58 -67 -37 -13
-41 -14 -89 -22 -41 -8 -50 -6 -72 13 -26 22 -29 37 -39 165 -4 48 27 178 45
191 5 3 10 15 12 26 3 11 12 42 20 68 9 25 14 51 11 56 -4 5 -2 9 3 9 12 0 32
79 22 85 -4 3 -11 -3 -15 -13 -3 -9 -5 -17 -3 -17 2 0 -7 -11 -18 -23 -12 -13
-24 -41 -28 -63 -4 -26 -11 -39 -22 -39 -8 0 -13 -4 -9 -9 3 -5 -2 -17 -11
-25 -8 -9 -13 -16 -10 -16 4 0 -5 -22 -19 -50 -28 -56 -39 -106 -37 -165 6
-131 6 -225 0 -225 -5 0 -8 -6 -8 -14 0 -15 -21 -26 -51 -26 -10 0 -19 -4 -19
-9 0 -29 -94 -36 -144 -12 -41 20 -78 33 -84 31 -8 -3 -30 35 -25 43 2 4 -1 6
-9 5 -7 -2 -12 3 -10 10 1 6 -2 12 -8 12 -5 0 -10 6 -10 13 0 7 -6 19 -12 25
-7 7 -13 16 -14 20 -4 39 -79 142 -103 142 -5 0 -13 10 -16 21 -4 12 -21 35
-37 53 -24 25 -67 93 -73 116 -1 3 -4 12 -7 20 -22 65 -26 86 -23 132 2 49 25
85 46 73 4 -3 9 0 11 5 2 6 10 12 18 13 8 2 21 6 28 10 6 5 12 5 12 2 0 -4 7
0 15 9 9 8 22 13 29 10 8 -3 17 0 21 5 3 6 11 9 16 6 5 -3 6 1 3 8 -3 8 -13
14 -22 12 -9 -2 -17 -4 -17 -5 0 -1 -11 -3 -24 -6 -14 -2 -30 -9 -38 -15 -7
-6 -13 -8 -13 -4 0 4 -6 2 -13 -4 -8 -6 -17 -8 -20 -4 -4 3 -7 1 -7 -5 0 -7
-10 -10 -22 -8 -13 3 -23 5 -23 6 0 11 -110 19 -125 10 -7 -4 -26 -4 -42 0
-18 6 -26 5 -22 -1 3 -6 -5 -8 -22 -5 -15 3 -34 1 -43 -3 -9 -5 -26 -5 -38 0
-18 6 -22 15 -19 36 5 46 72 149 141 218 11 11 26 32 33 48 10 23 9 27 -3 27
-23 0 -195 -175 -195 -198 0 -11 -6 -25 -14 -31 -12 -10 -31 -66 -27 -83 0 -5
-3 -8 -9 -8 -5 0 -10 -7 -10 -15 0 -8 -9 -19 -20 -25 -18 -10 -24 -7 -21 13 0
4 -4 7 -10 7 -6 0 -9 9 -6 20 3 11 2 22 -3 25 -4 3 -5 20 -1 37 10 46 0 80
-19 68 -8 -5 -11 -10 -6 -10 5 0 2 -7 -5 -17 -8 -9 -13 -18 -11 -20 1 -1 2 -5
1 -8 -4 -25 -1 -87 4 -92 4 -3 7 -23 7 -44 0 -21 5 -41 10 -44 6 -4 9 -12 8
-18 -1 -7 5 -23 14 -37 16 -26 23 -96 9 -104 -4 -3 -4 -29 -1 -58 8 -60 4 -71
-15 -44 -8 10 -17 16 -22 13 -4 -3 -19 13 -33 34 -13 21 -29 39 -36 39 -17 0
-52 63 -65 118 -14 57 -39 91 -34 46 2 -16 5 -36 8 -44 2 -8 8 -34 12 -57 4
-24 11 -43 16 -43 5 0 9 -7 9 -16 0 -8 4 -13 8 -10 4 2 13 -8 20 -24 7 -15 24
-40 37 -54 13 -14 22 -26 19 -26 -3 0 1 -7 10 -15 8 -8 19 -15 25 -15 5 0 13
-9 16 -21 4 -11 9 -18 12 -15 5 4 23 -15 116 -126 25 -30 46 -46 61 -45 28 0
86 -41 86 -60 0 -8 5 -11 10 -8 6 3 10 2 10 -3 0 -9 62 -40 90 -46 8 -2 27 -8
41 -14 14 -5 43 -13 65 -16 21 -4 46 -8 54 -11 31 -9 76 -17 94 -16 10 0 32
-7 49 -16 24 -12 71 -15 226 -17 108 -1 202 -5 210 -10 18 -12 131 -9 131 3 0
6 54 33 80 39 8 2 42 5 75 7 33 2 60 4 60 5 0 3 113 9 246 14 112 3 209 21
209 39 0 4 6 7 13 6 6 -2 29 5 51 14 21 9 44 17 52 17 7 0 19 6 26 13 21 21
78 59 78 52 0 -3 18 4 40 15 23 11 45 18 50 15 6 -4 13 0 16 9 3 8 12 12 20 9
8 -3 23 2 33 11 10 9 20 13 24 10 3 -4 13 1 22 10 15 14 36 21 58 17 4 0 7 4
7 10 0 5 5 7 10 4 6 -3 10 -1 10 4 0 6 6 11 14 11 8 0 18 9 21 20 4 11 10 18
14 16 4 -3 18 13 32 34 13 22 28 40 32 40 5 0 6 4 2 9 -3 5 -1 12 5 16 5 3 10
16 10 29 0 12 5 27 10 32 9 9 13 21 23 69 3 13 44 73 68 100 10 11 34 37 54
57 19 21 35 42 35 48 0 5 5 10 10 10 6 0 10 6 10 14 0 8 6 17 13 19 9 4 9 6
-1 6 -8 1 -10 6 -6 13 21 34 -6 127 -47 164 l-22 19 7 -27 c3 -15 9 -51 12
-80 3 -29 8 -56 10 -59 2 -4 -3 -9 -11 -13 -8 -3 -15 -12 -15 -20 0 -7 -7 -16
-15 -20 -8 -3 -15 -12 -15 -21 0 -8 -6 -15 -13 -15 -7 0 -28 -11 -46 -24 -39
-29 -45 -27 -125 49 -71 67 -85 77 -95 70 -6 -3 -28 12 -50 33 -23 22 -41 38
-41 36 0 -2 -24 20 -53 49 -29 29 -52 55 -50 58 1 4 -9 15 -22 25 -14 10 -25
23 -25 29 -1 17 -58 87 -64 77z m-1717 -416 c6 -4 11 -1 11 6 0 10 2 10 9 0 4
-8 11 -13 15 -13 20 3 26 -1 26 -18 0 -11 -4 -22 -9 -26 -12 -7 0 -122 15
-147 5 -7 9 -20 11 -28 4 -26 36 -90 45 -90 5 0 6 -4 3 -10 -3 -5 -1 -10 4
-10 6 0 11 -6 11 -14 0 -7 15 -29 33 -48 18 -19 31 -40 29 -47 -2 -6 2 -11 10
-11 12 0 56 -60 50 -68 -1 -1 6 -12 17 -23 19 -20 18 -47 -1 -60 -5 -3 -42 28
-84 68 -42 40 -80 71 -85 68 -5 -4 -9 -1 -9 5 0 7 -7 9 -15 6 -9 -3 -18 0 -21
8 -3 7 -10 13 -17 13 -16 0 -106 42 -140 66 -15 10 -34 20 -41 21 -7 1 -20 8
-28 16 -9 8 -28 24 -43 34 -42 31 -54 64 -50 141 4 89 11 117 30 127 8 5 16 8
17 8 2 -1 17 4 33 11 17 6 46 13 65 16 19 2 36 5 38 7 5 6 59 -1 71 -8z m2041
-79 c0 -5 6 -7 14 -4 14 6 42 -46 36 -68 -1 -5 -2 -23 -1 -40 1 -27 -25 -103
-39 -115 -4 -3 -9 -13 -13 -22 -3 -10 -13 -18 -22 -18 -8 0 -15 -5 -15 -11 0
-5 -4 -8 -9 -5 -5 3 -11 -1 -15 -9 -3 -8 -12 -15 -21 -15 -8 0 -15 -4 -15 -8
0 -12 -48 -33 -53 -24 -6 12 -2 25 26 81 15 30 27 63 27 72 0 10 4 20 9 24 6
3 8 14 6 23 -2 10 3 45 10 77 8 32 11 63 8 68 -3 5 0 13 7 17 15 9 60 -8 60
-23z m-2226 -310 c13 -13 28 -21 34 -19 7 2 12 -1 12 -8 0 -6 5 -8 10 -5 6 3
10 2 10 -2 0 -5 10 -9 21 -10 12 -1 31 -11 44 -23 12 -11 25 -17 28 -13 4 3 7
1 7 -5 0 -6 21 -21 48 -34 26 -13 49 -26 50 -31 2 -4 8 -5 13 -1 5 3 9 1 9 -5
0 -5 9 -13 20 -16 11 -4 20 -15 20 -26 0 -11 -4 -18 -9 -14 -5 3 -12 1 -16 -5
-4 -6 -13 -6 -23 -1 -9 5 -41 18 -70 30 -29 11 -64 34 -78 51 -14 16 -32 30
-39 30 -7 0 -18 6 -25 14 -6 8 -18 12 -25 10 -13 -5 -75 50 -75 67 0 4 -3 14
-6 23 -9 23 13 19 40 -7z"/>
</g>
</svg>
